/* XPM */
static char *_[] = {
/* columns rows colors chars-per-pixel */
"50 50 2 1 ",
"  c black",
". c gray44",
/* pixels */
".................       .......................   ",
"..............       .......................      ",
"............      ......................        ..",
".........      ......................        .....",
"......       ....................        .........",
"...       ....................        ............",
"       ...................        ................",
"    ..................         ...............    ",
" ..................        ................       ",
"...............        ................        ...",
"............        ................        ......",
"........        ................        ..........",
".....        ................        .............",
".        ................        ..............   ",
"      ...............         ..............      ",
"  ................        ...............       ..",
"..............        ...............        .....",
"...........        ...............        ........",
".......        ................       ............",
"....        ................       ...............",
"        .................       ...............   ",
"     .................       ..............       ",
" ..................       ..............        ..",
"................       ..............       ......",
".............       .............        .........",
".........        .............        ............",
"......        .............       ..............  ",
"...       .............        ..............     ",
"       .............        .............        .",
"    .............       ..............        ....",
" ............        ..............       ........",
"..........        .............        ...........",
".......       ..............        ..............",
"...        .............        ..................",
"        .............        ..................   ",
"    .............        ...................      ",
" .............        ..................        ..",
"...........       ...................        .....",
".......        ..................        .........",
"....        ..................        ............",
"        ..................        ................",
"     ..................        .................  ",
" ...................       ..................     ",
"................        .................        .",
".............        .................        ....",
".........        .................        ........",
"......        .................        ...........",
"..        .................        ...............",
"       ..................       ..................",
"   ......................   ......................"
};
