/* XPM */
static char *fb3a23aaa4a141ecf3bd6ab6112cc60dBzSx6p3T08FXzYYO[] = {
/* columns rows colors chars-per-pixel */
"50 50 2 1 ",
"  c None",
". c white",
/* pixels */
"                                                  ",
"                                                  ",
"                    ...                           ",
"                  .........                       ",
"                ............                      ",
"              .....      ...                      ",
"             ....         ...                     ",
"             ...           ...                    ",
"             ..       ..    ..                    ",
"            ...   ..  ..    ...                   ",
"            ..    ..         ..                   ",
"            ...       ..     ..                   ",
"             ..       .. ..  ..                   ",
"             ...   ..    .. ...                   ",
"              ...  ........ ...                   ",
"               ...........  ..                    ",
"                ....  ...  ...                    ",
"                  ....    ...                     ",
"                   .........                      ",
"                    .......                       ",
"                     ..                           ",
"                     ..                           ",
"                     ..                           ",
"                     ..                           ",
"            ..       ..                           ",
"            ...........                           ",
"             .............                        ",
"                     ...........                  ",
"                     ..  .......                  ",
"                     ..     ....                  ",
"                     ..                           ",
"                     ...                          ",
"                      ..                          ",
"                      ..                          ",
"                      ..                          ",
"                      ..                          ",
"                    ....                          ",
"                    ....                          ",
"                    .....                         ",
"                   ... ...                        ",
"                 ....   ...                       ",
"               .....     ...                      ",
"              ....        ...                     ",
"            ....           ...                    ",
"            ...             ...                   ",
"            ..               ...                  ",
"                             ...                  ",
"                              ...                 ",
"                               ..                 ",
"                                                  "
};
