/* XPM */
static char *New_Piskel__1_[] = {
/* columns rows colors chars-per-pixel */
"50 50 2 1 ",
"  c #D1AFAF",
". c white",
/* pixels */
"..                                              ..",
"...                                            ...",
" ...                                         .... ",
"  ...                                       ....  ",
"   ...                                     ...    ",
"    ...                                  ....     ",
"     ...                                ....      ",
"      ...                              ...        ",
"       ....                          ....         ",
"        ....                        ....          ",
"          ...                      ...            ",
"           ...                   ....             ",
"            ...                 ....              ",
"             ...               ...                ",
"              ...            ....                 ",
"               ...          ....                  ",
"                ...   ........                    ",
"                 .............                    ",
"                  ....      ...                   ",
"                  ...        ...                  ",
"                  ..          ..                  ",
"                 ..            ..                 ",
"                 ..            ..                 ",
"                 ..     ..     ..                 ",
"                 ..     ..     ..                 ",
"                 ..            ..                 ",
"                 ..            ..                 ",
"                  ..          ..                  ",
"                  ...        ...                  ",
"                  ....      ...                   ",
"                 ...............                  ",
"                ...   ......  ...                 ",
"               ...             ...                ",
"              ...               ...               ",
"             ...                 ...              ",
"            ...                   ...             ",
"           ...                     ...            ",
"          ...                       ...           ",
"         ...                         ...          ",
"        ...                           ...         ",
"       ...                             ...        ",
"      ...                               ...       ",
"     ...                                 ...      ",
"    ...                                   ...     ",
"   ...                                     ...    ",
"  ...                                       ...   ",
" ...                                         ...  ",
"...                                           ... ",
"..                                             ...",
".                                               .."
};
