/* XPM */
static char *_[] = {
/* columns rows colors chars-per-pixel */
"50 50 89 1 ",
"  c #9C7B58",
". c #9D7B58",
"X c #9D7B59",
"o c #9D7C59",
"O c #9E7C59",
"+ c #9F7C59",
"@ c #9F7D59",
"# c #9F7D5A",
"$ c #A07D5A",
"% c #A07E5A",
"& c #A17E5A",
"* c #A17E5B",
"= c #A17F5B",
"- c #A27F5B",
"; c #A3805B",
": c #A3805C",
"> c #A4805C",
", c #A4815C",
"< c #A4815D",
"1 c #A5815D",
"2 c #A5825D",
"3 c #A6825D",
"4 c #A6825E",
"5 c #A6835E",
"6 c #A7835E",
"7 c #A8835E",
"8 c #A8845E",
"9 c #A8845F",
"0 c #A9845F",
"q c #A9855F",
"w c #AA855F",
"e c #AA8560",
"r c #AA8660",
"t c #AB8660",
"y c #AC8760",
"u c #AC8761",
"i c #AD8761",
"p c #AD8861",
"a c #AD8862",
"s c #AE8862",
"d c #AE8962",
"f c #AF8962",
"g c #AF8963",
"h c #AF8A63",
"j c #B08A63",
"k c #B18A63",
"l c #B18B63",
"z c #B18B64",
"x c #B28B64",
"c c #B28C64",
"v c #B38C64",
"b c #B38C65",
"n c #B38D65",
"m c #B48D65",
"M c #B58E66",
"N c #B68E66",
"B c #B68F66",
"V c #B68F67",
"C c #B78F67",
"Z c #B79067",
"A c #B89067",
"S c #B89068",
"D c #B89168",
"F c #B99168",
"G c #BA9168",
"H c #BA9268",
"J c #BA9269",
"K c #BB9269",
"L c #BB9369",
"P c #BC9369",
"I c #BC936A",
"U c #BC946A",
"Y c #BD946A",
"T c #BE956B",
"R c #BF956B",
"E c #BF966B",
"W c #BF966C",
"Q c #C0966C",
"! c #C0976C",
"~ c #C1976C",
"^ c #C1976D",
"/ c #C1986D",
"( c #C2986D",
") c #C3986D",
"_ c #C3996D",
"` c #C3996E",
"' c #C4996E",
"] c #C49A6E",
"[ c None",
/* pixels */
"[liWFBezFi%Sz6qqipeqB'YBp%[pzzizWFz*CCq9Fp6eeeiepL",
"B7*VYpeF`F6YqlYFFFc%qzl6%##pFFiqFFiiQQBiFeBFFFFp%p",
"6%%ep#eF`B*66B````c%i6%X#ep6z6-%ii%pQYz*6qF```Wp##",
"ppi*:Xelz6pp:z`QQQ7lIpi#eFWl-lple%Xizl6pqqF`Q`Y*6B",
"pYQYp%%6*%Fp6gVQ~z-IQFeeA`Ql6QQFe%%%6%6Fq7zFWWp:zW",
"pW`QFlllp6gp#:eplp%lIi7V`QYl6Q`QpezBzp;pq%*ipg# 6B",
"g`'`FepIp%X#qzp*X%66ii6zFzi%lFIBqqBFFi#X%pB7ep*666",
"pWQQBegB6X#%B'F76lBpXX%eiq7%eiqiq66ie#XXeC'BWp6zBz",
"eZZBeqA`pqqqiBl%zQ`Be*lp;zBwqq6%lBz6X7qqqzBeBl-b`]",
"z9666%lBpqBl#6q6lY`QB-BbzQ`AFCi7A'B*%lFBeq6X67%eFF",
"YB%iiq%6iiYFe6zB9lW`I7YliY``'QB6CFl%iFQQFz6#XiCi66",
"66:zAqX#iIQWi6BA6pY`Y7'beIQ``QC6CBl6lW'`Fz7X#izpeW",
"pIl-6%XXpYQz%%wqeI`QI6Bzl~'QQYpeA`z%6z`Fi%pz-*6*#z",
"I`Yp6leXelIp7ze#BQ`Yp>zlqA~zlpe6AQz6#ppe%eFQz%pzze",
"AIFp6BC6##e%bQA6eFYp#X6e-ii%-:*6epp6:##6iqCYz6B``F",
"6ipe-BBe666%zIB6Xeip6:#iBi6%zBzze%qzz6XqB6qi%p~``B",
"Bq#X6BeibBz6%eq676#qBi6F'FBqiQ'YieBFFp*eqee%#lQQ`A",
"ICqX%e:iI`Cl*qlAFz:BQzqpY``z-`'Yq6qqeq6zpYIp%lC``F",
"QBeeize7zBBp6BY'`I6zYBi%lY`z%BBBq #eee6VY``z%67pBz",
"q6%zWWB6%6*6*B'QQ`p7z6:#%zzqi6*6q6#pFFii_`Ac6iBi-6",
"pp6z`)C6ipIC6z`QQ`l%7le##**zFCi6BB6eW`Ae_Bq%pIQFe6",
"lF6zQQB6iI`QB7llllp6zYFzqX#pzzeiQQl6IYp%6;%#pzIp6B",
"lIi--el6pWQli#%:%#-lQIQQB6%-%66BBpp*pp*iAz7#-6ii6B",
"ii7bbi%%lYY6*Xezz6lF~BYQB:lzzzg7e:66%6zBFIz7lb6  e",
"X%zQ'FqeI`QBl*eSB:lB`YzzzeBWQQIwezzi6B`F6q#iY~z6X6",
"%%iF`YpeBQF`Yi7Bz6pF`'Ii7BQ```Fi7Bz6lQ`YFIp6B`Qz- ",
"i$$iF`F66eeQz6*q7eepB~Be67BQ`'Yq-eq%pQQQ``B6p``IiX",
"z%X%iBieBBBbqp66iBi7lzpq6e6zBBzqzVBieBBF`Fi%>BBzee",
"Ii%pe6**lbY7pSeeSQFp6lieBYl6;6%6zzzl%66p`B6ep666zB",
"Ql6zFp6#%66%zpqBQ``Yi%6BQQz%#X#%6*6**ppz`B6pFYFipC",
"z6pWQBq#pIY%::qA``Yze6BQ'`Ql#6lpll6pzYFBFp6pW`Wi6l",
"6%6zFqelI`QlzzeqZzp666zQ`QQl6zQQQB6pI`F#6:#pF`Fi%-",
"pBz66%eF`QIBQQFpe76czl7BQQQQl%zY'Yz7iFF6zBeepBiieF",
"pQ`Yzi6BQIpF'`'F7pz``Yl7BFIFi7qzFlqzqeeqY`B:66#*zY",
"pQQ'Fe 6li7eFYFFqz~``QF-6eqeeZz7eqB~Bq#7zVz6zl#X;l",
"pQQ`Iq>i%qB6zz6q%l~'Q~l6eei%zQQz6zWQ`pX%eeeeYz%eee",
"p``YlqBApez:peiieqzzBz*qBFz*F''BiQQ`QpX-7XXpYl*zFF",
"6zzzi7C`z*6VqzYYz66;6-#%iBq*zBFieF`QQl6zBp6*zl*BQ`",
"A6%:%%ize*pYqY``Wl*ie6pl7*pz66p%%izll6zQQB6#%:%6BF",
"FI6ple#%pzWY7BQYB7lFlq~~piFQWC6%iq%66iYQQB6##zFp#6",
"-66pV7#XpYY`QZqezYz*Y````B6YF6`QFeeFp*lQFz7:%ppeeW",
"zYz6%6*XpBlIFi#eF`z6lIIYQY6Yz6Y'QC6i66-zIlpB7#666p",
"Q)Qp6zp%zqiqqq qBFi%eiezIl%Ci%pI'Y77BbeieilQz*pBBp",
"lCVi6BBl~z%X#%qqqqeeq76;q7q7#X6zFp%pQQpXXX6zpeFQ'F",
"e7766BbzBe$X%lACp*lCFBi6eBFi%ie77%#6zb6XX6BFBzQ`QA",
"Cp#X7zl76$ie6lBBp6C``FqzFQ`z-zB76iii66%i7ezBBzQQ`A",
"WIi#eYIzi*lC%-%-6XzQQF6B'QB6lI`zqZYYzi-bl%6%6%e`QF",
"Yp6lQQ`QB*li6ll7#%pzzp6ZQc6#pBFelQQ`Yi6li7lp%#:llp",
"76*BQ``QB%--BQVe%p6#*epel6XX%7i7B``QQz%*7FQB**p**6",
"lp*zYYYYlqY6Y'BepIz6zYCqX#%6zl%7BYYIYpiFiQ`z7zYl6l"
};
