/* XPM */
static char *bullet[] = {
/* columns rows colors chars-per-pixel */
"50 50 60 1 ",
"  c #FF0200",
". c #FF0300",
"X c #FF0400",
"o c #FF0500",
"O c #FF0700",
"+ c #FF0800",
"@ c #FF0A00",
"# c #FF0D00",
"$ c #FF0F00",
"% c #FF1200",
"& c #FF1500",
"* c #FF1600",
"= c #FF1700",
"- c #FF1900",
"; c #FF1A00",
": c #FF2400",
"> c #FF2900",
", c #FF2C00",
"< c #FF3300",
"1 c #FF3600",
"2 c #FF3D00",
"3 c #FF4000",
"4 c #FF4A00",
"5 c #FF4D00",
"6 c #FF4F00",
"7 c #FF5200",
"8 c #FF5300",
"9 c #FF5700",
"0 c #FF5800",
"q c #FF5E00",
"w c #FF5F00",
"e c #FF6000",
"r c #FF6200",
"t c #FF6400",
"y c #FF6600",
"u c #FF6700",
"i c #FF6B00",
"p c #FF6C00",
"a c #FF6E00",
"s c #FF7500",
"d c #FF7C01",
"f c #FF7D01",
"g c #FF8301",
"h c #FF8F03",
"j c #FF9003",
"k c #FF9704",
"l c #FFA107",
"z c #FFAB0A",
"x c #FFAB0B",
"c c #FFB50E",
"v c #FFB50F",
"b c #FFCC1D",
"n c #FFD62A",
"m c #FFD829",
"M c #FFEA4E",
"N c #FFF368",
"B c #FFF887",
"V c #FFFDAE",
"C c #FFFFD9",
"Z c None",
/* pixels */
"ZZZZZZZZZZZZZZZZZZZZZZZZZZZZZZZZZZZZZZZZZZZZZZZZZZ",
"ZZZZZZZZZZZZZZZZZZZZZZZZZZZZZZZZZZZZZZZZZZZZZZZZZZ",
"ZZZZZZZZZZZZZZZZZZZZZZZZZZZZZZZZZZZZZZZZZZZZZZZZZZ",
"ZZZZZZZZZZZZZZZZZZZZZZZZZZZZZZZZZZZZZZZZZZZZZZZZZZ",
"ZZZZZZZZZZZZZZZZZZZZZZZZZZZZZZZZZZZZZZZZZZZZZZZZZZ",
"ZZZZZZZZZZZZZZZZZZZZZZZZZZZZZZZZZZZZZZZZZZZZZZZZZZ",
"ZZZZZZZZZZZZZZZZZZZZZZZZZZZZZZZZZZZZZZZZZZZZZZZZZZ",
"ZZZZZZZZZZZZZZZZZZZZZZZZZZZZZZZZZZZZZZZZZZZZZZZZZZ",
"ZZZZZZZZZZZZZZZZZZZZZZZZZZZZZZZZZZZZZZZZZZZZZZZZZZ",
"ZZZZZZZZZZZZZZZZZZZZZZZZZZZZZZZZZZZZZZZZZZZZZZZZZZ",
"ZZZZZZZZZZZZZZZZZZZZZZZZZZZZZZZZZZZZZZZZZZZZZZZZZZ",
"ZZZZZZZZZZZZZZZZZZZZZZZZZZZZZZZZZZZZZZZZZZZZZZZZZZ",
"ZZZZZZZZZZZZZZZZZZZZZZZX.X.ZZZZZZZZZZZZZZZZZZZZZZZ",
"ZZZZZZZZZZZZZZZZZZZZ.XXX++XX..ZZZZZZZZZZZZZZZZZZZZ",
"ZZZZZZZZZZZZZZZZZZ.X+#%*--*%#+X.ZZZZZZZZZZZZZZZZZZ",
"ZZZZZZZZZZZZZZZZZX+#-:,<11<,:-%XXZZZZZZZZZZZZZZZZZ",
"ZZZZZZZZZZZZZZZZX+*:<34588543<:*+XZZZZZZZZZZZZZZZZ",
"ZZZZZZZZZZZZZZZX+->250weeeww882>*+XZZZZZZZZZZZZZZZ",
"ZZZZZZZZZZZZZZ.X*>38weuipppiew82>*X.ZZZZZZZZZZZZZZ",
"ZZZZZZZZZZZZZZ.%:28euisfggfspuw82:%XZZZZZZZZZZZZZZ",
"ZZZZZZZZZZZZZ.+-<5wupdhlxxljfpiw51-+.ZZZZZZZZZZZZZ",
"ZZZZZZZZZZZZZX#:30updkcbmmbckfpe02:#XZZZZZZZZZZZZZ",
"ZZZZZZZZZZZZZX%>4wushcnMNNMnchsuw4,%XZZZZZZZZZZZZZ",
"ZZZZZZZZZZZZ.X-<5eiflbMBVVBMblfie51-X.ZZZZZZZZZZZZ",
"ZZZZZZZZZZZZ.X-18epgxmNVCCVNmxgpe81-XXZZZZZZZZZZZZ",
"ZZZZZZZZZZZZX+-18epgxmNVCCVNmxgpe81-+.ZZZZZZZZZZZZ",
"ZZZZZZZZZZZZ.+*18wiflbMBVVBMblfie8<-XXZZZZZZZZZZZZ",
"ZZZZZZZZZZZZZX%,4wushcnMNNMnchsuw4>%XZZZZZZZZZZZZZ",
"ZZZZZZZZZZZZZ.#:28upfkcbmmbckfpu03:#XZZZZZZZZZZZZZ",
"ZZZZZZZZZZZZZ.+-15wupfjlxxlhfpuw5<-+.ZZZZZZZZZZZZZ",
"ZZZZZZZZZZZZZZX%:28wepsfggdsiuw82:#.ZZZZZZZZZZZZZZ",
"ZZZZZZZZZZZZZZXX*>28wuuippiiew82>*+.ZZZZZZZZZZZZZZ",
"ZZZZZZZZZZZZZZZ.+->250wweeew052>*+XZZZZZZZZZZZZZZZ",
"ZZZZZZZZZZZZZZZZX+*:<345888421:*+XZZZZZZZZZZZZZZZZ",
"ZZZZZZZZZZZZZZZZZ.X%-:,111<>:-%XXZZZZZZZZZZZZZZZZZ",
"ZZZZZZZZZZZZZZZZZZ.X+#%*--*%#+X.ZZZZZZZZZZZZZZZZZZ",
"ZZZZZZZZZZZZZZZZZZZZ.XXX++XXX.ZZZZZZZZZZZZZZZZZZZZ",
"ZZZZZZZZZZZZZZZZZZZZZZZ....ZZZZZZZZZZZZZZZZZZZZZZZ",
"ZZZZZZZZZZZZZZZZZZZZZZZZZZZZZZZZZZZZZZZZZZZZZZZZZZ",
"ZZZZZZZZZZZZZZZZZZZZZZZZZZZZZZZZZZZZZZZZZZZZZZZZZZ",
"ZZZZZZZZZZZZZZZZZZZZZZZZZZZZZZZZZZZZZZZZZZZZZZZZZZ",
"ZZZZZZZZZZZZZZZZZZZZZZZZZZZZZZZZZZZZZZZZZZZZZZZZZZ",
"ZZZZZZZZZZZZZZZZZZZZZZZZZZZZZZZZZZZZZZZZZZZZZZZZZZ",
"ZZZZZZZZZZZZZZZZZZZZZZZZZZZZZZZZZZZZZZZZZZZZZZZZZZ",
"ZZZZZZZZZZZZZZZZZZZZZZZZZZZZZZZZZZZZZZZZZZZZZZZZZZ",
"ZZZZZZZZZZZZZZZZZZZZZZZZZZZZZZZZZZZZZZZZZZZZZZZZZZ",
"ZZZZZZZZZZZZZZZZZZZZZZZZZZZZZZZZZZZZZZZZZZZZZZZZZZ",
"ZZZZZZZZZZZZZZZZZZZZZZZZZZZZZZZZZZZZZZZZZZZZZZZZZZ",
"ZZZZZZZZZZZZZZZZZZZZZZZZZZZZZZZZZZZZZZZZZZZZZZZZZZ",
"ZZZZZZZZZZZZZZZZZZZZZZZZZZZZZZZZZZZZZZZZZZZZZZZZZZ"
};
