/* XPM */
static char *C[] = {
/* columns rows colors chars-per-pixel */
"50 50 162 2 ",
"   c #714304",
".  c #7C4D05",
"X  c #754C12",
"o  c #696235",
"O  c #3E734E",
"+  c #607F50",
"@  c #885703",
"#  c #915F00",
"$  c #8E610E",
"%  c #9A6503",
"&  c #AA7401",
"*  c #B77B08",
"=  c #846C2D",
"-  c #C17E00",
";  c #5D8A59",
":  c #5E915F",
">  c #658755",
",  c #6E8C56",
"<  c #6A995F",
"1  c #75985C",
"2  c #7AB055",
"3  c #4D9262",
"4  c #539262",
"5  c #5C9562",
"6  c #639A66",
"7  c #79A060",
"8  c #BF8002",
"9  c #B3821B",
"0  c #B88A20",
"q  c #CA8600",
"w  c #CD8B01",
"e  c #C98D09",
"r  c #D18E02",
"t  c #D49301",
"y  c #D99600",
"u  c #D79904",
"i  c #DC9D01",
"p  c #D4940C",
"a  c #D49A0D",
"s  c #CD9511",
"d  c #D49C12",
"f  c #D59E1B",
"g  c #D89818",
"h  c #E09E00",
"j  c #DDA304",
"k  c #DCA10B",
"l  c #DCA214",
"z  c #DBA41C",
"x  c #DEA81C",
"c  c #E4A401",
"v  c #E8A600",
"b  c #E5AB03",
"n  c #EBAB00",
"m  c #E5AA0E",
"M  c #F1AF00",
"N  c #ECB202",
"B  c #F3B500",
"V  c #F6BC02",
"C  c #F4BB0A",
"Z  c #E4AA14",
"A  c #E2AA1B",
"S  c #E7B011",
"D  c #EAB316",
"F  c #EEB914",
"G  c #E7B018",
"H  c #EAB41A",
"J  c #EEBA1D",
"K  c #F1BA1C",
"L  c #C98D27",
"P  c #CA9B24",
"I  c #D69C21",
"U  c #D1942D",
"Y  c #C49B35",
"T  c #CA9D31",
"R  c #D69B34",
"E  c #D1A221",
"W  c #DAA423",
"Q  c #DFA925",
"!  c #D4A42B",
"~  c #DBA72A",
"^  c #DEAA2B",
"/  c #CEAA37",
"(  c #DBA33C",
")  c #DDB738",
"_  c #E2AC23",
"`  c #E1AD29",
"'  c #E5B227",
"]  c #E9B524",
"[  c #EEB924",
"{  c #E5B22A",
"}  c #E9B42B",
"|  c #EBBA2D",
" . c #F5BF21",
".. c #E7B539",
"X. c #E7BF3A",
"o. c #F5C018",
"O. c #F9C21C",
"+. c #F9C424",
"@. c #F7C32F",
"#. c #EFC33B",
"$. c #FECE32",
"%. c #958D4B",
"&. c #93974F",
"*. c #879052",
"=. c #969D53",
"-. c #AE9541",
";. c #9AA856",
":. c #B6AD4D",
">. c #A4A753",
",. c #BCB95F",
"<. c #88A666",
"1. c #94AF6F",
"2. c #9DB26E",
"3. c #8DAC78",
"4. c #A4B472",
"5. c #A8B771",
"6. c #BBBE72",
"7. c #C0A642",
"8. c #CDB24E",
"9. c #D7AB50",
"0. c #C9BA55",
"q. c #E2AF43",
"w. c #E6B745",
"e. c #E4BC41",
"r. c #EBBE41",
"t. c #EBBC4C",
"y. c #E5AC56",
"u. c #E9BA52",
"i. c #EABD5C",
"p. c #DDB175",
"a. c #E5B665",
"s. c #D5C759",
"d. c #DFC85C",
"f. c #EDC34A",
"g. c #F7CB47",
"h. c #F8C944",
"j. c #F0CE4C",
"k. c #E7C759",
"l. c #EDCE5B",
"z. c #F1C75A",
"x. c #FADA56",
"c. c #C4C962",
"v. c #CCC36F",
"b. c #DAC666",
"n. c #DFC861",
"m. c #D0C66F",
"M. c #C3C470",
"N. c #F3C86B",
"B. c #EFCE7C",
"V. c #FEE568",
"C. c #F8EB7E",
"Z. c #ABBD8B",
"A. c #EDC880",
"S. c #F1D58D",
"D. c #F3D498",
"F. c #FFE688",
"G. c #F7E3A2",
"H. c #ECEBB3",
"J. c #FFF4B5",
"K. c #FCF1D9",
"L. c #FEF9D9",
"P. c #FBF9E9",
/* pixels */
"3 3 3 3 3 3 3 3 3 3 3 3 3 3 3 3 3 3 3 3 3 3 3 3 3 3 3 3 3 3 3 3 3 3 3 3 3 3 3 3 3 3 3 3 3 3 3 3 3 3 ",
"3 3 3 3 3 3 3 3 3 3 3 3 3 3 3 3 3 3 3 3 3 3 3 3 3 3 3 3 3 3 3 3 3 3 3 3 3 3 3 3 3 3 3 3 3 3 3 3 3 3 ",
"3 3 3 3 3 3 3 3 3 3 3 3 3 3 3 3 3 3 3 3 3 3 3 3 3 3 2 3 3 3 3 3 3 3 3 3 3 3 3 3 3 3 3 3 3 3 3 3 3 3 ",
"3 3 3 3 3 3 3 3 3 3 3 3 3 3 3 3 3 3 3 3 3 3 3 3 3 2 2 3 3 3 3 3 3 3 3 3 3 3 3 3 3 3 3 3 3 3 3 3 3 3 ",
"3 3 3 3 3 3 3 3 3 3 3 3 3 3 3 3 3 3 3 3 3 3 2 3 3 2 2 3 3 3 3 3 3 3 3 3 3 2 3 3 3 3 3 3 3 3 3 3 3 3 ",
"3 3 3 3 3 3 3 3 3 3 3 3 3 3 3 3 3 3 3 3 3 3 2 2 O 2 3 3 3 3 3 3 3 3 3 3 3 2 3 3 3 3 3 3 3 3 3 3 3 3 ",
"3 3 3 3 3 3 3 3 3 3 3 3 3 3 3 3 3 3 3 3 3 3 O 2 2 O 3 3 3 3 3 3 3 3 3 2 3 2 3 3 3 3 3 3 3 3 3 3 3 3 ",
"3 3 3 3 3 3 3 3 3 3 3 3 3 3 3 3 3 3 3 3 3 3 3 O O 3 3 3 3 3 3 3 3 3 3 2 3 2 3 3 3 3 3 3 3 3 3 3 3 3 ",
"3 3 3 3 3 3 3 3 3 3 3 3 3 3 3 3 3 3 3 3 3 3 3 3 3 3 3 3 3 3 3 3 3 3 3 2 3 3 3 3 3 3 3 3 3 3 3 3 3 3 ",
"3 3 3 3 3 3 3 3 3 3 3 3 3 3 3 3 3 3 3 3 3 3 3 3 3 3 3 3 3 3 3 3 3 3 3 3 3 3 3 3 3 3 3 3 3 3 3 3 3 3 ",
"3 3 3 3 3 3 3 3 3 3 3 3 3 3 3 3 3 3 3 3 3 3 3 3 3 3 3 3 3 3 3 3 3 3 3 3 3 3 3 3 3 3 3 3 3 3 3 3 3 3 ",
"3 3 3 3 3 3 3 3 3 3 3 3 3 3 3 3 3 3 3 3 3 3 3 3 3 3 3 3 3 3 3 3 3 3 O 3 3 3 3 3 3 3 3 3 3 3 3 3 3 3 ",
"3 3 3 3 3 3 3 3 3 3 3 3 3 3 3 3 3 3 3 3 4 4 3 3 3 3 3 3 3 3 3 3 3 O 3 O 3 3 3 3 3 3 3 3 3 3 3 3 3 3 ",
"3 3 3 3 3 3 3 3 3 3 3 3 3 3 3 3 3 3 3 4 *.-.Y T Y 7.:.;.< 3 3 3 3 3 O 3 3 3 3 3 3 3 3 3 3 3 3 3 3 3 ",
"3 3 3 3 3 3 3 3 3 3 3 3 3 3 3 3 3 4 %.f v v c i i y f r.V.s.7 3 3 3 3 3 3 3 3 3 3 3 3 3 3 3 3 3 3 3 ",
"3 3 3 3 3 3 3 3 3 3 3 3 3 3 3 3 ; Y M n n ..t.u.q.g w w R V.C.4.3 3 3 3 3 3 3 3 3 3 3 3 3 3 3 3 3 3 ",
"3 3 3 3 3 3 3 3 3 3 3 3 3 3 3 : R B M N.A.a.( R ( 9.L q q U G.L.Z.3 3 3 3 3 3 3 3 3 3 3 3 3 3 3 3 3 ",
"3 3 3 3 3 3 3 3 3 3 3 3 3 3 3 / B H D.a.h h h i.p t q - r w R K.P.3.3 3 3 3 3 3 3 3 3 3 3 3 3 3 3 3 ",
"3 3 2 3 3 3 3 3 3 3 3 3 3 3 >.V B N.y.h c h t z.p.r t r - q - y.L.H.4 3 3 3 3 3 3 3 3 3 3 3 3 3 3 3 ",
"3 3 2 3 3 3 3 3 3 3 3 3 3 4 #.V n m v n c h w  .D.p r r q w q q S.J.4.3 3 3 3 3 3 3 3 3 3 3 3 3 3 3 ",
"3 3 2 3 2 3 3 3 3 3 3 3 3 <.+.V q n N b c r y C F.p.r w r q w q P f.8.3 3 3 3 3 3 3 3 3 3 3 3 3 3 3 ",
"3 3 2 3 2 3 3 3 3 3 3 3 3 ,.o.C u n v b v y i N $.V.x.j.f.I q q 8 L P 4 3 3 3 3 3 3 3 3 3 3 3 3 3 3 ",
"3 3 3 3 2 3 3 3 3 3 3 3 3 s.O.m c N e t i y w.c h.o.+.K Z w q q q 0 P , 3 3 3 3 3 3 3 3 3 3 3 3 3 3 ",
"3 3 3 3 3 3 3 3 3 3 3 3 3 d.O.S S C b p t w ` y  .v i r - w w q q % & , 3 3 3 3 3 3 3 3 3 3 3 3 3 3 ",
"3 3 3 3 3 3 3 3 3 3 3 3 3 d.+.J D F F k e w f u A v t - w w r w - @ # > 3 3 3 3 3 3 3 3 3 3 3 3 3 3 ",
"3 3 3 3 3 3 3 3 3 3 3 3 2 b.+.@.] J F S 8 r t u i J X.q w r r q - @ @ > 3 3 3 3 3 3 3 3 2 3 3 3 3 3 ",
"3 3 3 3 3 3 3 3 3 3 3 2 3 c.+.@.#.] J x e j j j j G x.w t r y w &   X 3 3 3 3 3 3 3 3 2 3 2 3 3 3 3 ",
"3 3 3 3 3 3 3 3 3 3 3 3 2 <.h.] l.] ] Q b b a s j j g.I t y y w %   o 3 3 3 3 3 3 3 3 3 2 3 3 3 3 3 ",
"3 3 3 3 3 3 3 3 3 3 3 3 3 3 n.[ z.a.| ` o.z z x d a ' ~ u j t e @ . + 3 3 3 3 3 3 3 3 3 3 3 3 3 3 3 ",
"3 3 3 3 3 3 3 3 3 3 3 3 3 3 2.h.] D.i.} { { ` _ Q z l l j u p * $ = 3 3 3 3 3 3 3 3 3 3 3 3 3 3 3 3 ",
"3 3 3 3 3 3 3 3 3 3 3 3 3 3 3 m.} ' B.z.{ ' ' ' Q x l k k a s 9 9 , 3 3 3 3 3 3 3 3 3 3 3 3 3 3 3 3 ",
"3 3 3 3 3 3 3 3 3 3 3 3 3 3 3 5 b.{ _ t.j.#.| } H J G l d z ! E &.3 3 3 3 3 3 3 3 3 3 3 3 3 3 3 3 3 ",
"3 2 2 3 3 3 3 3 3 3 3 3 3 3 3 3 6 m...` Q ` { { Q W W z ) f.) =.3 3 3 3 3 3 3 3 3 3 3 3 3 3 3 3 3 3 ",
"3 3 2 2 3 2 2 3 3 3 3 3 3 3 3 3 3 4 5.b.w.^ ^ ^ Q ~ e.l.k.0.1 3 3 3 3 3 3 3 3 3 3 3 3 3 3 3 3 3 3 3 ",
"3 3 3 2 2 2 3 3 3 3 3 3 3 3 3 3 3 3 3 4 1.6.v.v.v.M.5.<.5 3 3 3 3 3 3 3 3 2 3 3 3 3 3 3 3 3 3 3 3 2 ",
"3 3 3 O 2 O 3 3 3 3 3 3 3 3 3 3 3 3 3 3 3 3 3 3 3 3 3 3 3 3 3 3 3 3 3 2 3 2 3 3 3 3 3 3 3 3 3 3 3 3 ",
"3 3 3 O O 3 3 3 3 3 3 3 3 3 3 3 3 3 3 3 3 3 3 3 3 3 3 3 3 3 3 3 3 3 3 2 3 2 3 3 3 3 3 3 3 3 3 3 3 3 ",
"3 3 3 3 3 3 3 3 3 3 3 3 3 3 3 3 3 3 3 3 3 3 3 3 3 3 3 3 3 3 3 3 3 3 3 2 3 3 3 3 3 3 3 3 3 3 3 3 3 3 ",
"3 3 3 3 3 3 3 3 3 3 3 3 3 3 3 3 3 3 3 3 3 3 3 3 3 3 3 3 3 3 3 3 3 3 3 3 3 3 3 3 3 3 3 3 3 3 3 3 3 3 ",
"3 3 3 3 3 3 3 3 3 3 3 3 3 3 3 3 3 3 3 3 3 3 3 3 3 2 3 3 3 3 3 3 3 3 3 3 3 3 3 3 3 3 3 3 3 3 3 3 3 3 ",
"3 3 3 3 3 3 3 3 3 3 3 3 3 3 3 3 3 3 3 3 3 3 3 3 2 3 2 3 3 3 3 3 3 3 3 3 3 3 3 3 3 3 3 3 3 3 3 3 3 3 ",
"3 3 3 3 3 3 3 3 3 3 3 3 3 3 3 3 3 3 3 3 3 3 3 3 3 2 3 3 3 3 3 3 3 3 3 3 3 3 3 3 3 3 3 3 3 3 3 3 3 3 ",
"3 3 3 3 3 3 3 3 3 3 3 3 3 3 3 3 3 3 3 3 3 3 3 3 3 3 3 3 3 3 3 3 3 3 3 3 3 3 3 3 3 3 3 3 3 3 3 3 3 3 ",
"3 3 3 3 3 3 3 3 3 3 3 3 3 3 3 3 3 3 3 3 3 3 3 3 3 3 3 3 3 3 3 3 3 3 O 3 3 3 3 3 3 3 3 3 3 3 3 3 3 3 ",
"3 3 3 3 3 3 3 3 3 3 3 3 3 3 3 3 3 3 3 3 3 3 3 3 3 3 3 3 3 3 3 3 3 O 3 O 3 3 3 3 3 3 3 3 3 3 3 3 3 3 ",
"3 3 3 3 3 3 3 3 3 3 3 3 3 3 3 3 3 3 3 3 3 3 3 3 3 3 3 3 3 3 3 3 3 3 O 3 3 3 3 3 3 3 3 3 3 3 3 3 3 3 ",
"3 3 3 3 3 3 3 3 3 3 3 3 3 3 3 3 3 3 3 3 3 3 3 3 3 3 3 3 3 3 3 3 3 3 3 3 3 3 3 3 3 3 3 3 3 3 3 3 3 3 ",
"3 3 3 3 3 3 3 3 3 3 3 3 3 3 3 3 3 3 3 3 3 3 3 3 3 3 3 3 3 3 3 3 3 3 3 3 3 3 3 3 3 3 3 3 3 3 3 3 3 3 ",
"3 3 3 3 3 3 3 3 3 3 3 3 3 3 3 3 3 3 3 3 3 3 3 3 3 3 3 3 3 2 3 3 3 3 3 3 3 3 3 3 3 3 3 3 3 3 3 3 3 3 ",
"3 3 3 3 3 3 3 3 3 3 3 3 3 3 3 3 3 3 3 3 3 3 3 3 3 3 3 3 3 2 2 3 3 3 3 3 3 3 3 3 3 3 3 3 3 3 3 3 3 3 "
};
