/* XPM */
static char *ElqpwLoX0AEBNAM__1_[] = {
/* columns rows colors chars-per-pixel */
"50 50 67 1 ",
"  c #1E160E",
". c #20180F",
"X c #231A11",
"o c #291F12",
"O c #2D2215",
"+ c #322516",
"@ c #372817",
"# c #382917",
"$ c #332718",
"% c #362919",
"& c #3B2D1B",
"* c #393735",
"= c #3B3A39",
"- c #402F1B",
"; c #44331E",
": c #463522",
"> c #493721",
", c #4C3924",
"< c #443729",
"1 c #45392D",
"2 c #4C3D2C",
"3 c #513D25",
"4 c #543F28",
"5 c #413B32",
"6 c #4B3F32",
"7 c #574126",
"8 c #584126",
"9 c #56412A",
"0 c #5C452B",
"q c #5E482E",
"w c #4F4336",
"e c #45423E",
"r c #49433C",
"t c #524333",
"y c #5D4933",
"u c #544738",
"i c #55493B",
"p c #5C4E3E",
"a c #60472B",
"s c #634A2D",
"d c #694E2F",
"f c #654E34",
"g c #6A4F30",
"h c #6D5132",
"j c #6D553B",
"k c #745534",
"l c #775835",
"z c #7B5B35",
"x c #70573B",
"c c #745B3D",
"v c #7E5E39",
"b c #444341",
"n c #4D4C4B",
"m c #584F45",
"M c #5C5145",
"N c #51504F",
"B c #5D564E",
"V c #5F5D5B",
"C c #675542",
"Z c #6E5941",
"A c #655A4D",
"S c #6D5E4E",
"D c #605850",
"F c #65625E",
"G c #6B635B",
"H c #805E36",
"J c None",
/* pixels */
"JJJJJJJJJJJJJJJJJJJJJJJJJJJJJJJJJJJJJJJJJJJJJJJJJJ",
"JJJJJJJJJJJJJJJJJJJJJJJJJJJJJJJJJJJJJJJJJJJJJJJJJJ",
"JJJJJJJJJJJJJJJJJJJJJJJJJJJJJJJJJJJJJJJJJJJJJJJJJJ",
"JJJJJJJJJJJJJJJJJJJJJJJJJJJJJJJJJJJJJJJJJJJJJJJJJJ",
"JJJJJJJJJJJJJJJJJJJJJJJJJJJJJJJJJJJJJJJJJJJJJJJJJJ",
"JJJJJJJJJJJJJJJJJJJJJJJJJJJJJJJJJJJJJJJJJJJJJJJJJJ",
"JJJJJJJJJJJJJJJJJJJJJJJJJJJJJJJJJJJJJJJJJJJJJJJJJJ",
"JJJJJJJJJJJJJJJJJJJJJJJJJJJJJJJJJJJJJJJJJJJJJJJJJJ",
"JJJJJJJJJJJJJJJJJJJJJJJJJJJJJJJJJJJJJJJJJJJJJJJJJJ",
"JJJJJJJJJJJJJJJJJJJJJJJJJJJJJJJJJJJJJJJJJJJJJJJJJJ",
"JJJJJJJJJJJJJJJJJJJJJJJJJJJJJJJJJJJJJJJJJJJJJJJJJJ",
"JJJJJJJJJJJJJJJJJJJJJJJJJJJJJJJJJJJJJJJJJJJJJJJJJJ",
"JJJJJJJJJJJJJJJJJJJJJJJhhssJJJJJJJJJJJJJJJJJJJJJJJ",
"JJJJJJJJJJJJJJJJJJJJJhkkkkgs0JJJJJJJJJJJJJJJJJJJJJ",
"JJJJJJJJJJJJJJJJJJJz4,3gzzxGb5yJJJJJJJJJJJJJJJJJJJ",
"JJJJJJJJJJJJJJJJJgzzzh4>qybBjhsssJJJJJJJJJJJJJJJJJ",
"JJJJJJJJJJJJJJJg440gzkZDm<,4zzgggfsJJJJJJJJJJJJJJJ",
"JJJJJJJJJJJJJHzkhh:<0r5Mjg4:,kzzgkdssJJJJJJJJJJJJJ",
"JJJJJJJJJJJd,:q0fhjf2<4afzHh,:4hzklzgssJJJJJJJJJJJ",
"JJJJJJJJJvHvh0329wNDZ00,0gkkg03:4fkkkzhssJJJJJJJJJ",
"JJJJJJJs,9kvllZB2<2sgzzs>,0klkas0,40shhCB=9JJJJJJJ",
"JJJJJzvzk9;,grbSx0><fgdgkg<:sHHkkk9:,0enGvhsfJJJJJ",
"JJJqaklzkzct259shkka3<0sggg43,skvzHZw219dkkhdd3JJJ",
"JJJ&7qshymNSf0>3skzkga330hggs433shmNSfs>9gkka;OJJJ",
"JJJ+%;35*60shvkq:>kkzkks>,szzzzx>,2zzvzkq,>;OXXJJJ",
"JJJ;%OO;,qsghkzzk3<3hlvzk0,:zkMFFq2<akkkd;+  XOJJJ",
"JJJ,,;#O+;80aghzzks3>shHkgsi6<5jkkk08,3:o. XO#OJJJ",
"JJJ;;,3;#O#&38shkzzssq,8gfrVCa340zsg0+oX.oO##OOJJJ",
"JJJJJ;;33;OOO&;qagHHlvz8::uzHkHd::,+o.X ++#+OJJJJJ",
"JJJJJJJ;,;#&$+O&>4skzjAFD4,akzzha-O.XXO+++#JJJJJJJ",
"JJJJJJJJJ>;;>;&+$$896=uxzkda>a03oX oO+++OJJJJJJJJJ",
"JJJJJJJJJJJ>>3,>$o+&,0shvHzla#O. XO##+OJJJJJJJJJJJ",
"JJJJJJJJJJJJJ3;3,;+Oo33ashk;#   .O+@OJJJJJJJJJJJJJ",
"JJJJJJJJJJJJJJJ;;>>-%o+;4;+X XO#OO+JJJJJJJJJJJJJJJ",
"JJJJJJJJJJJJJJJJJ:->3-&O#o.o+##++JJJJJJJJJJJJJJJJJ",
"JJJJJJJJJJJJJJJJJJJ;333;+.+@#OOJJJJJJJJJJJJJJJJJJJ",
"JJJJJJJJJJJJJJJJJJJJJ;>;;##+OJJJJJJJJJJJJJJJJJJJJJ",
"JJJJJJJJJJJJJJJJJJJJJJJ;;+OJJJJJJJJJJJJJJJJJJJJJJJ",
"JJJJJJJJJJJJJJJJJJJJJJJJJJJJJJJJJJJJJJJJJJJJJJJJJJ",
"JJJJJJJJJJJJJJJJJJJJJJJJJJJJJJJJJJJJJJJJJJJJJJJJJJ",
"JJJJJJJJJJJJJJJJJJJJJJJJJJJJJJJJJJJJJJJJJJJJJJJJJJ",
"JJJJJJJJJJJJJJJJJJJJJJJJJJJJJJJJJJJJJJJJJJJJJJJJJJ",
"JJJJJJJJJJJJJJJJJJJJJJJJJJJJJJJJJJJJJJJJJJJJJJJJJJ",
"JJJJJJJJJJJJJJJJJJJJJJJJJJJJJJJJJJJJJJJJJJJJJJJJJJ",
"JJJJJJJJJJJJJJJJJJJJJJJJJJJJJJJJJJJJJJJJJJJJJJJJJJ",
"JJJJJJJJJJJJJJJJJJJJJJJJJJJJJJJJJJJJJJJJJJJJJJJJJJ",
"JJJJJJJJJJJJJJJJJJJJJJJJJJJJJJJJJJJJJJJJJJJJJJJJJJ",
"JJJJJJJJJJJJJJJJJJJJJJJJJJJJJJJJJJJJJJJJJJJJJJJJJJ",
"JJJJJJJJJJJJJJJJJJJJJJJJJJJJJJJJJJJJJJJJJJJJJJJJJJ",
"JJJJJJJJJJJJJJJJJJJJJJJJJJJJJJJJJJJJJJJJJJJJJJJJJJ"
};
