/* XPM */
static char *E[] = {
/* columns rows colors chars-per-pixel */
"50 50 77 1 ",
"  c #01730B",
". c #00780B",
"X c #007B0C",
"o c #007E0D",
"O c #11651B",
"+ c #166720",
"@ c #1B6926",
"# c #2F783D",
"$ c #2F793E",
"% c #2F7D3E",
"& c #307C3F",
"* c #317A40",
"= c #317E40",
"- c #357B45",
"; c #3E734E",
": c #00810E",
"> c #00820E",
", c #00860D",
"< c #008D0F",
"1 c #008F0F",
"2 c #01930D",
"3 c #00930E",
"4 c #00960E",
"5 c #009B0F",
"6 c #009C0F",
"7 c #009310",
"8 c #009410",
"9 c #009510",
"0 c #009C10",
"q c #009E10",
"w c #01A310",
"e c #00A312",
"r c #01A511",
"t c #00A710",
"y c #00A412",
"u c #00AA11",
"i c #00A913",
"p c #00AB13",
"a c #00AF13",
"s c #00B012",
"d c #00B013",
"f c #00B613",
"g c #00B214",
"h c #00B314",
"j c #00B414",
"k c #00BB13",
"l c #00BC13",
"z c #00BC15",
"x c #00BF14",
"c c #2F803E",
"v c #2F823E",
"b c #2F833E",
"n c #00C114",
"m c #00C516",
"M c #00C616",
"N c #00C716",
"B c #00C916",
"V c #00CB17",
"C c #00CD17",
"Z c #00CE17",
"A c #00D017",
"S c #00D117",
"D c #00D417",
"F c #00D618",
"G c #00D818",
"H c #318140",
"J c #418654",
"K c #428755",
"L c #458958",
"P c #458A58",
"I c #488C5C",
"U c #498E5D",
"Y c #4A8F5E",
"T c #78AE53",
"R c #7AB055",
"E c #4B9060",
"W c #4D9262",
/* pixels */
"WWWWWWWWWWWWWWWWWWWWWWWWWWWWWWWWWWWWWWWWWWWWWWWWWW",
"WWWWWWWWWWWWWWWWWWWWWWWWWWWWWWWWWWWWWWWWWWWWWWWWWW",
"WWWWWWWWWWWWWWWWWWWWWWWWWWRWWWWWWWWWWWWWWWWWWWWWWW",
"WWWWWWWWWWWWWWWWWWWWWWWWWRRWWWWWWWWWWWWWWWWWWWWWWW",
"WWWWWWWWWWWWWWWWWWWWWWRWWRRWWWWWWWWWWTWWWWWWWWWWWW",
"WWWWWWWWWWWWWWWWWWWWWWRR;RWWWWWWWWWWWTWWWWWWWWWWWW",
"WWWWWWWWWWWWWWWWWWWWWW;RR;WWWWWWWWWRWTWWWWWWWWWWWW",
"WWWWWWWWWWWWWWWWWWWWWWW;;WWWWWWWWWWRWRWWWWWWWWWWWW",
"WWWWWWWWWWWWWWWWWWWWWWWWWWWWWWWWWWWTWWWWWWWWWWWWWW",
"WWWWWWWWWWW-#####%%%%#%%%%bbbbb%bb&b=YWWWWWWWWWWWW",
"WWWWWWWWWWW@X><7errriiaaggzFFFZmDBnmeIWWWWWWWWWWWW",
"WWWWWWWWWWW@X><8eriiigadgjzGGGSmGBmBrYWWWWWWWWWWWW",
"WWWWWWWWWWW@X><8eeriiaadjjzGGGSBGBmBePWWWWWWWWWWWW",
"WWWWWWWWWWW@X><8eriiiaadgjzGGGSmGBmmrUWWWWWWWWWWWW",
"WWWWWWWWWWW@X><8rrriiaaggjnGGGZmGBmmrUWWWWWWWWWWWW",
"WWWWWWWWWWW@X><8eriiiaaggjzGGGZBDBmmtIWWWWWWWWWWWW",
"WWWWWWWWWWW@X><7erriaaaaggzGGGABGBmBrYWWWWWWWWWWWW",
"WWWWWWWWWWW@X><3erriiiaagjzGGGABGBmmwUWWWWWWWWWWWW",
"WWRWWWWWWWW@ X>,33855566q6ikknfaldaa2YWWWWWWWWWWWW",
"WWRWWWWWWWWLJJOX.,<85q66efnnndlzd6-KPYWWWWWWWWWWWW",
"WWRWTWWWWWWWWE+>>78iipaadZGGGBADBuPWWWWWWWWWWWWWWW",
"WWRWTWWWWWWWWE+o><8ripadfBGGGmAGmuPWWWWWWWWWWWWWWW",
"WWWWTWWWWWWWWE+o>77iiigddBGGGBAGmuPWWWWWWWWWWWWWWW",
"WWWWWWWWWWWWWE+o>37riiaagZGGGBADmuPWWWWWWWWWWWWWWW",
"WWWWWWWWWWWWWW+>>14iiiadjZGGGmSFBuPWWWWWWWWWWWWWWW",
"WWWWWWWWWWWWTE+o>73eiiaagBGGGBSFmuPWWWWWWWWWRWWWWW",
"WWWWWWWWWWWTWT+o>74tidaajVFGGBSFmuPWWWWWWWWRWRWWWW",
"WWWWWWWWWWWWRW+oo14tiiadgZFGGmSFmuPWWWWWWWWWRWWWWW",
"WWWWWWWWWWWWWE+:>17iiiaagVGGGmSFBuPWWWWWWWWWWWWWWW",
"WWWWWWWWWWWWWW+o>78riaaagZGGGBSFmuPWWWWWWWWWWWWWWW",
"WWWWWWWWWWWWWE+oo78iiigpjVGGGBSFmiPWWWWWWWWWWWWWWW",
"WWWWWWWWWWWWWE+::88yiidggVGGGmSFmdPWWWWWWWWWWWWWWW",
"WRRWWWWWWWWWWW+o>17ripaadZFGGBSFmiPWWWWWWWWWWWWWWW",
"WWRRWRRWWWWWWW+o>77iipadjBGGGmSGmiPWWWWWWWWWWWWWWW",
"WWWRRRWWWWWWWE+o>78riigggBGGGmSFmiPWWRWWWWWWWWWWWR",
"WWW;R;WWWWWWWW+o>88riipgjZGGGBSFmaPRWRWWWWWWWWWWWW",
"WWW;;WWWWWWWWEO>>18iiiadgZGGGmSFmuPRWRWWWWWWWWWWWW",
"WWWWWWWWWWWWWE+o>78riiaagVGGGBSFmuPRWWWWWWWWWWWWWW",
"WWWWWWWWWWWWWW+o>14riaaagVFGGmSFBuPWWWWWWWWWWWWWWW",
"WWWWWWWWWWWWWW+o>74riiadgZGGGmSGmuPWWWWWWWWWWWWWWW",
"WWWWWWWWWWWWWE+o>77riipgjmGFGMSGmuPWWWWWWWWWWWWWWW",
"WWWWWWWWWWWWWY+o>17rriiggVFSFMZSnuPWWWWWWWWWWWWWWW",
"WWWWWWWWWWWWWW-****====H=HHHHHHHb&UWWWWWWWWWWWWWWW",
"WWWWWWWWWWWWWWWWWWWWWWWWWWWWWWWWWW;WWWWWWWWWWWWWWW",
"WWWWWWWWWWWWWWWWWWWWWWWWWWWWWWWWW;W;WWWWWWWWWWWWWW",
"WWWWWWWWWWWWWWWWWWWWWWWWWWWWWWWWWW;WWWWWWWWWWWWWWW",
"WWWWWWWWWWWWWWWWWWWWWWWWWWWWWWWWWWWWWWWWWWWWWWWWWW",
"WWWWWWWWWWWWWWWWWWWWWWWWWWWWWWWWWWWWWWWWWWWWWWWWWW",
"WWWWWWWWWWWWWWWWWWWWWWWWWWWWWTWWWWWWWWWWWWWWWWWWWW",
"WWWWWWWWWWWWWWWWWWWWWWWWWWWWWTRWWWWWWWWWWWWWWWWWWW"
};
