/* XPM */
static char *E2[] = {
/* columns rows colors chars-per-pixel */
"50 50 232 2 ",
"   c #2B1811",
".  c #3C261C",
"X  c #71070B",
"o  c #582A08",
"O  c #57301A",
"+  c #6A3815",
"@  c #56312D",
"#  c #65392A",
"$  c #7B3227",
"%  c #01730B",
"&  c #007D0C",
"*  c #11651B",
"=  c #2B7D10",
"-  c #166720",
";  c #1B6720",
":  c #1B6926",
">  c #2F773D",
",  c #2F7B3E",
"<  c #37723B",
"1  c #525730",
"2  c #7C4A25",
"3  c #6E4535",
"4  c #705036",
"5  c #666C20",
"6  c #72673C",
"7  c #022E69",
"8  c #003469",
"9  c #002E72",
"0  c #003273",
"q  c #00357C",
"w  c #27336A",
"e  c #6D1C41",
"r  c #432D68",
"t  c #007E5B",
"y  c #347C43",
"u  c #3E734E",
"i  c #014F71",
"p  c #294969",
"a  c #006568",
"s  c #007575",
"d  c #5D444D",
"f  c #7A574D",
"g  c #567149",
"h  c #61764C",
"j  c #7D7143",
"k  c #407E7F",
"l  c #870309",
"z  c #940007",
"x  c #950A10",
"c  c #A7060A",
"v  c #B5000B",
"b  c #BC000C",
"n  c #912313",
"m  c #873529",
"M  c #C8000E",
"N  c #CA0319",
"B  c #DA0515",
"V  c #E80119",
"C  c #F9001A",
"Z  c #F21119",
"A  c #C53F0F",
"S  c #F03B1E",
"D  c #CF1D25",
"F  c #FD0523",
"G  c #F80A22",
"H  c #D83833",
"J  c #E32E36",
"K  c #92500A",
"L  c #B65911",
"P  c #B16612",
"I  c #8E492F",
"U  c #895532",
"Y  c #955A35",
"T  c #8B6E27",
"R  c #AF723B",
"E  c #D34915",
"W  c #A82B66",
"Q  c #DF2557",
"!  c #8B5A4A",
"~  c #876945",
"^  c #92714D",
"/  c #A46646",
"(  c #B5714A",
")  c #A86B57",
"_  c #A8715A",
"`  c #8B686F",
"'  c #B57E65",
"]  c #FC4951",
"[  c #CB6042",
"{  c #CF6E68",
"}  c #00820E",
"|  c #008D0F",
" . c #00950E",
".. c #088916",
"X. c #009310",
"o. c #0C9019",
"O. c #01A412",
"+. c #00AB11",
"@. c #0CA911",
"#. c #00B214",
"$. c #00BE14",
"%. c #2BA312",
"&. c #0E9325",
"*. c #00973D",
"=. c #2F813E",
"-. c #2C913D",
";. c #00A728",
":. c #00BF29",
">. c #00BB35",
",. c #35B026",
"<. c #718712",
"1. c #579F25",
"2. c #4EB32F",
"3. c #00C616",
"4. c #00CA16",
"5. c #07C51C",
"6. c #00D117",
"7. c #02D619",
"8. c #13D618",
"9. c #2ACF1A",
"0. c #00CA23",
"q. c #2ED336",
"w. c #55C62A",
"e. c #008B43",
"r. c #008B56",
"t. c #358145",
"y. c #00AA4F",
"u. c #00896E",
"i. c #009868",
"p. c #00AA70",
"a. c #438755",
"s. c #4D8754",
"d. c #458958",
"f. c #488C5C",
"g. c #558C5E",
"h. c #6D9D44",
"j. c #50B051",
"k. c #75B049",
"l. c #7AB055",
"z. c #588D61",
"x. c #4D9262",
"c. c #529164",
"v. c #5A9267",
"b. c #709679",
"n. c #51D355",
"m. c #F2EA17",
"M. c #8C8955",
"N. c #AB8C52",
"B. c #9A8D64",
"V. c #BA846A",
"C. c #B38B70",
"Z. c #9FB669",
"A. c #C48658",
"S. c #C69579",
"D. c #D09070",
"F. c #E0927F",
"G. c #CDB07E",
"H. c #E2A47A",
"J. c #003B84",
"K. c #003A87",
"L. c #00418E",
"P. c #004F8B",
"I. c #004394",
"U. c #004996",
"Y. c #004699",
"T. c #00499F",
"R. c #005A91",
"E. c #006E94",
"W. c #004BA3",
"Q. c #004FAA",
"!. c #0051AC",
"~. c #0054B4",
"^. c #0057B9",
"/. c #005ABE",
"(. c #3057A9",
"). c #335AB2",
"_. c #0167AC",
"`. c #505495",
"'. c #727195",
"]. c #544AA2",
"[. c #4C6AAF",
"{. c #005CC4",
"}. c #015FC8",
"|. c #0062CD",
" X c #0065D4",
".X c #0068D6",
"XX c #0069D9",
"oX c #1862D0",
"OX c #2665D6",
"+X c #585BC2",
"@X c #496DC6",
"#X c #B73D87",
"$X c #9A609A",
"%X c #C2408C",
"&X c #D17F80",
"*X c #008081",
"=X c #72A8BC",
"-X c #6B8DC8",
";X c #888787",
":X c #909595",
">X c #B79893",
",X c #8EAE92",
"<X c #A4A892",
"1X c #A8A8A8",
"2X c #A7B2AE",
"3X c #B7B8B8",
"4X c #DB9E81",
"5X c #EB8E91",
"6X c #D6AF8E",
"7X c #EBB192",
"8X c #F8BC9A",
"9X c #CBADAA",
"0X c #FBA6A7",
"qX c #EFB4B5",
"wX c #E5C59C",
"eX c #F3C29D",
"rX c #D6C2B9",
"tX c #EFD1AB",
"yX c #F9D3AB",
"uX c #FBE3BA",
"iX c #8AB0C3",
"pX c #B1C4D4",
"aX c #C7C7C8",
"sX c #CCD2D0",
"dX c #D7D7D9",
"fX c #F7CBCC",
"gX c #DDE0DC",
"hX c #FAEDCC",
"jX c #C2E0EC",
"kX c #E3E3E4",
"lX c #EDECED",
"zX c #F6F4F5",
/* pixels */
"x.x.x.x.x.x.x.x.x.x.x.x.x.x.x.x.x.x.x.x.x.x.x.x.x.x.x.x.x.x.x.x.x.x.x.x.x.x.x.x.x.x.x.x.x.x.x.x.x.x.",
"x.x.x.x.x.x.x.x.x.x.x.x.x.x.x.x.x.x.x.x.x.x.x.x.x.x.x.x.x.x.x.x.x.x.x.x.x.x.x.x.x.x.x.x.x.x.x.x.x.x.",
"x.x.x.x.x.x.x.x.x.x.x.x.x.x.x.x.x.x.x.x.x.x.x.f.x.x.l.x.x.x.x.x.x.x.x.x.x.x.x.x.x.x.x.x.x.x.x.x.x.x.",
"x.x.x.x.x.x.x.x.x.x.x.x.x.x.x.x.x.x.x.x.x.x.x.j.x.l.l.x.x.x.x.x.x.x.x.x.x.x.x.x.x.x.x.x.x.x.x.x.x.x.",
"x.x.x.x.x.x.x.x.x.x.x.x.x.x.x.x.x.x.x.x.x.x.Z.d.g.l.l.c.x.x.x.x.x.x.x.x.x.l.x.x.x.x.x.x.x.x.x.x.x.x.",
"x.x.x.x.x.x.x.x.x.x.x.x.x.x.x.x.x.x.x.x.x.c.N.A.H [ [ h.x.x.x.x.x.x.x.x.x.l.x.x.x.x.x.x.x.x.x.x.x.x.",
"x.x.x.x.x.x.x.x.x.x.x.x.x.x.x.x.x.x.x.x.z.[ G ] 0X0X] B / g.x.x.x.x.x.l.x.l.x.x.x.x.x.x.x.x.x.x.x.x.",
"x.x.x.x.x.x.x.x.x.x.x.x.x.x.x.x.x.x.x.z.[ C ] fX0X0XfXJ M Y x.x.x.x.x.l.x.l.x.x.x.x.x.x.x.x.x.x.x.x.",
"x.x.x.x.x.x.x.x.x.x.x.x.x.x.x.x.x.x.z.R C F F.0XqXfX5X{ M v ~ x.x.x.x.l.x.x.x.x.x.x.x.x.x.x.x.x.x.x.",
"x.x.x.x.x.x.x.x.x.x.x.y > > y > , , 6 Z C C ] 5XqX0X&XH M b c g =.t.=.=.=.d.x.x.x.x.x.x.x.x.x.x.x.x.",
"x.x.x.x.x.x.x.x.x.x.x.: & } X.X.O.O.P C C C B M b M b v M v c <.7.3.3.3.O.f.c.x.x.x.x.x.x.x.x.x.x.x.",
"x.x.x.x.x.x.x.x.x.x.x.: & } | X.O.%.E B M z X m I I m X X z c K 8.3.3.3.O.f.x.x.x.x.x.x.x.x.x.x.x.x.",
"x.x.x.x.x.x.x.x.x.x.x.: & } | X.O.%.A v m O # 3 ) / # # + $ l K 8.4.3.4.O.f.x.x.x.x.x.x.x.x.x.x.x.x.",
"x.x.x.x.x.x.x.x.x.x.x.: & } | X.O.O.P n V.S.9X9X4XD.>X9X_ ) X T 7.4.3.3.+.f.x.x.x.x.x.x.x.x.x.x.x.x.",
"x.x.x.x.x.x.x.x.x.x.x.: & } | X.O.k.wX! tXhXjX=XhXeX=XpX6X' o ^ w.6.3.3.O.f.x.x.x.x.x.x.x.x.x.x.x.x.",
"x.x.x.x.x.x.x.x.x.x.x.: & & | X.O.Z.8X/ wXhXpX$XuXtX` iXwXV.# _ k.3.3.3.O.f.x.x.x.x.x.x.x.x.x.x.x.x.",
"x.x.x.x.x.x.x.x.x.x.x.: & } |  .O.Z.yXV.wXrXlXuXhXuX7XrX6XV.4 ) w.4.5.3.+.f.x.x.x.x.x.x.x.x.x.x.x.x.",
"x.x.x.x.x.x.x.x.x.x.x.: & } |  .O.,.tXtX6X. Z.yXyXeX4X^   _ ' N.9.3.3.3.O.f.x.x.x.x.x.x.x.x.x.x.x.x.",
"x.x.l.x.x.x.x.x.x.x.x.: % & } }  . .h.G.tX_ @ D.H.D.' . 4 V.B.2.$.#.+.+. .d.x.x.x.x.x.x.x.x.x.x.x.x.",
"x.x.l.x.x.x.x.x.x.x.x.a.a.a.* % % | | 1.7X8X' ! ! f 3 ! V.C.,.$.#.O.t.a.s.x.x.x.x.x.x.x.x.x.x.x.x.x.",
"x.x.l.x.l.x.x.x.x.x.x.x.x.x.- } } X. .+.1.S.0X8X6XD.' ' B.w.6.6.3.+.a.x.x.x.x.x.x.x.x.x.x.x.x.x.x.x.",
"x.x.l.x.l.x.x.x.x.x.x.x.c.x.- & } |  .1.R ).'.F.F.{ ) d p <.9.7.3.+.a.x.x.x.x.x.x.x.x.x.x.x.x.x.x.x.",
"x.x.x.x.l.x.x.x.x.x.x.x.x.f.; } } X.<.S Q OX+XC D D z w 7 l K w.4.+.d.x.x.x.x.x.x.x.x.x.x.x.x.x.x.x.",
"x.x.x.x.x.x.x.x.x.x.x.x.x.x.; % } <.S F Q -X@X$X%X#X$X`.-Xe z K 2.+.d.x.x.x.x.x.x.x.x.x.x.x.x.x.x.x.",
"x.x.x.x.x.x.x.x.x.x.x.x.x.x.; % 5 H G V { m.:XXX X}.{.<Xm.` l B E %.d.x.x.x.x.x.x.x.x.x.x.x.x.x.x.x.",
"x.x.x.x.x.x.x.x.x.x.x.x.l.f.; %.E F V W @XZ.@XXX X}.}.[.B.p e B V L s.j.x.x.x.x.x.x.x.x.l.x.x.x.x.x.",
"x.x.x.x.x.x.x.x.x.x.x.l.x.l.; L G Z b ].XXXX.X.X X|.{.^.Q.Y.r N C V ~ f.x.x.x.x.x.x.x.l.x.l.x.x.x.x.",
"x.x.x.x.x.x.x.x.x.x.x.x.l.c.2XqX5XD l ).XXXX.X X X}./.~.Q.I.w x J 5X9X:Xx.x.x.x.x.x.x.x.l.x.x.x.x.x.",
"x.x.x.x.x.x.x.x.x.x.x.x.s.=XkXkXaX:X1 ~.|.|.|.|.|./.~.!.I.K.a h.9XdXaX1Xv.x.x.x.x.x.x.x.x.x.x.x.x.x.",
"x.x.x.x.x.x.x.x.x.x.x.x.g.sXzXzXdX:Xt.R./.{././.~.!.Q.Y.K.0 i j.aXlXkXsX,Xx.x.x.x.x.x.x.x.x.x.x.x.x.",
"x.x.x.x.x.x.x.x.x.x.x.c.2XlXzXlXdX2X&.E.!.~.~.!.Q.T.I.K.0 0 t q.gXzXlXdX3X=Xx.x.x.x.x.x.x.x.x.x.x.x.",
"x.x.x.x.x.x.x.x.x.x.x.j.sXlXlXaXsXaX-.s T.T.T.Y.L.J.q 0 7 7 r.n.kXkXlXkX1XB.x.x.x.x.x.x.x.x.x.x.x.x.",
"x.l.l.x.x.x.x.x.x.x.x.v.aXdXkX3XdX2X&.E.~.W.K.J.0 0 7 7 9 J.t q.dXaXgXdX;X;Xc.x.x.x.x.x.x.x.x.x.x.x.",
"x.x.l.l.x.l.l.x.x.x.x.x.,X3X3X:X1Xb.&._.{.^.Y.q 8 8 7 I.W.Y.a 4.,X<X3X2X;Xb.x.x.x.x.x.x.x.x.x.x.x.x.",
"x.x.x.l.l.l.x.x.x.x.x.x.x.c.< y s.o.*./.{.^.U.q e.*.I.!.~.W.i 0.$.j.g.v.c.l.x.x.x.x.x.x.x.x.x.x.x.l.",
"x.x.x.u l.u x.x.x.x.x.x.x.x.; & |  .r./.{.^.Y.9 ;.>.U.~.^.Q.I.>.5.+.d.l.x.l.x.x.x.x.x.x.x.x.x.x.x.x.",
"x.x.x.u u x.x.x.x.x.x.x.x.f.- & } | E.|.{.~.K.i ;.0.P.~.^.!.Y.y.3.+.d.l.x.l.x.x.x.x.x.x.x.x.x.x.x.x.",
"x.x.x.x.x.x.x.x.x.x.x.x.x.x.- } }  .E././.!.K.i #.4.E.~.^.!.K.i.3.+.d.l.x.x.x.x.x.x.x.x.x.x.x.x.x.x.",
"x.x.x.x.x.x.x.x.x.x.x.x.x.x.- & & o._.{./.W.J.a #.4.u.!.~.Q.Y.s 3.+.f.x.x.x.x.x.x.x.x.x.x.x.x.x.x.x.",
"x.x.x.x.x.x.x.x.x.x.x.x.x.x.- & } e. X|./.W.K.t #.4.p.~./.^.!.P.0. .d.x.x.x.x.x.x.x.x.x.x.x.x.x.x.x.",
"x.x.x.x.x.x.x.x.x.x.x.x.x.f.- } ..k @XoX^.T.q r.#.3.p.!.}.XXoX`.j.@.f.x.x.x.x.x.x.x.x.x.x.x.x.x.x.x.",
"x.x.x.x.x.x.x.x.x.x.x.x.x.x.- = N.A.( ` `.(.K.u.#.$.p.~.).'.C.A.R 5 d.x.x.x.x.x.x.x.x.x.x.x.x.x.x.x.",
"x.x.x.x.x.x.x.x.x.x.x.x.x.x.y j D.H.N.Y K + @ 1 y y g ! / A.H.D./ I g x.x.x.x.x.x.x.x.x.x.x.x.x.x.x.",
"x.x.x.x.x.x.x.x.x.x.x.x.x.x.x.j ( A.R I o o o g x.x.h 2 Y ( A.' Y + 1 x.x.x.x.x.x.x.x.x.x.x.x.x.x.x.",
"x.x.x.x.x.x.x.x.x.x.x.x.x.x.x.h U U 2 O o O 4 f.x.x.z.~ 2 U Y U + o g u x.x.x.x.x.x.x.x.x.x.x.x.x.x.",
"x.x.x.x.x.x.x.x.x.x.x.x.x.x.x.x.M.~ 6 6 h f.x.x.x.x.x.x.z.M.^ j 6 h u x.x.x.x.x.x.x.x.x.x.x.x.x.x.x.",
"x.x.x.x.x.x.x.x.x.x.x.x.x.x.x.x.x.x.x.x.x.x.x.x.x.x.x.x.x.x.x.x.x.x.x.x.x.x.x.x.x.x.x.x.x.x.x.x.x.x.",
"x.x.x.x.x.x.x.x.x.x.x.x.x.x.x.x.x.x.x.x.x.x.x.x.x.x.x.x.x.x.x.x.x.x.x.x.x.x.x.x.x.x.x.x.x.x.x.x.x.x.",
"x.x.x.x.x.x.x.x.x.x.x.x.x.x.x.x.x.x.x.x.x.x.x.x.x.x.x.x.x.l.x.x.x.x.x.x.x.x.x.x.x.x.x.x.x.x.x.x.x.x.",
"x.x.x.x.x.x.x.x.x.x.x.x.x.x.x.x.x.x.x.x.x.x.x.x.x.x.x.x.x.l.l.x.x.x.x.x.x.x.x.x.x.x.x.x.x.x.x.x.x.x."
};
