/* XPM */
static char *P[] = {
/* columns rows colors chars-per-pixel */
"50 50 213 2 ",
"   c #2B1811",
".  c #3C261C",
"X  c #6E0A0F",
"o  c #760205",
"O  c #582A08",
"+  c #57301A",
"@  c #62320E",
"#  c #723F19",
"$  c #593226",
"%  c #502E3A",
"&  c #65392A",
"*  c #7B3227",
"=  c #7D461B",
"-  c #505233",
";  c #7C4A25",
":  c #6E4535",
">  c #705036",
",  c #6F633E",
"<  c #1F3555",
"1  c #022E69",
"2  c #04316A",
"3  c #003273",
"4  c #093572",
"5  c #00357C",
"6  c #083D7D",
"7  c #27306A",
"8  c #6D1C41",
"9  c #3E734E",
"0  c #38715E",
"q  c #1B4A6D",
"w  c #1C4A72",
"e  c #2E5672",
"r  c #265976",
"t  c #32696E",
"y  c #39736A",
"u  c #326B77",
"i  c #5D4F4A",
"p  c #7A574D",
"a  c #53704C",
"s  c #54764D",
"d  c #796644",
"f  c #61764C",
"g  c #507668",
"h  c #870309",
"j  c #940007",
"k  c #950511",
"l  c #A50009",
"z  c #B5000B",
"x  c #BC000C",
"c  c #A91612",
"v  c #9C2C1C",
"b  c #873529",
"n  c #943725",
"m  c #C3000D",
"M  c #CC000F",
"N  c #CA0319",
"B  c #DA0515",
"V  c #E80119",
"C  c #F9001A",
"Z  c #F2161C",
"A  c #C81D25",
"S  c #DD1E25",
"D  c #FD0523",
"F  c #F80A22",
"G  c #CB3A2A",
"H  c #D83833",
"J  c #EA3232",
"K  c #8E492F",
"L  c #885533",
"P  c #955A35",
"I  c #B2553A",
"U  c #AA6D3C",
"Y  c #C1422F",
"T  c #D9543C",
"R  c #E94234",
"E  c #D86A37",
"W  c #A82B66",
"Q  c #E61C4C",
"!  c #D82D61",
"~  c #875B4A",
"^  c #8F594B",
"/  c #BC5F41",
"(  c #876744",
")  c #98694D",
"_  c #88784C",
"`  c #A46646",
"'  c #BD6444",
"]  c #AD7147",
"[  c #A86B57",
"{  c #A6745B",
"}  c #B57A50",
"|  c #8B686F",
" . c #B57E65",
".. c #FE454E",
"X. c #FA4D54",
"o. c #C66545",
"O. c #C2794F",
"+. c #CF6E68",
"@. c #FE7B7F",
"#. c #578C5E",
"$. c #66885B",
"%. c #768A5D",
"&. c #7AB055",
"*. c #488A65",
"=. c #578D65",
"-. c #4D9262",
";. c #539163",
":. c #5A9367",
">. c #518B7A",
",. c #668F66",
"<. c #6A8D74",
"1. c #679574",
"2. c #F2EA17",
"3. c #838356",
"4. c #B08F57",
"5. c #89AD5B",
"6. c #8D8E67",
"7. c #A98C6A",
"8. c #B78569",
"9. c #B78872",
"0. c #C48658",
"q. c #C58667",
"w. c #C59276",
"e. c #D49473",
"r. c #E2A47A",
"t. c #003B84",
"y. c #003A87",
"u. c #01408E",
"i. c #0B468C",
"p. c #004494",
"a. c #0F4D93",
"s. c #004699",
"d. c #00499F",
"f. c #1C5A95",
"g. c #254695",
"h. c #2F6D8C",
"j. c #004BA3",
"k. c #004FAA",
"l. c #0051AC",
"z. c #1A5FAD",
"x. c #0054B4",
"c. c #0057B9",
"v. c #005ABE",
"b. c #0A5BB9",
"n. c #3559B3",
"m. c #1C62AD",
"M. c #2E6DB1",
"N. c #505495",
"B. c #727195",
"V. c #544AA2",
"C. c #4C6AAF",
"Z. c #005CC4",
"A. c #015FC8",
"S. c #0062CD",
"D. c #0B64CC",
"F. c #0065D4",
"G. c #0068D6",
"H. c #0069D9",
"J. c #1862D0",
"K. c #2665D6",
"L. c #496DC6",
"P. c #B73D87",
"I. c #8C4496",
"U. c #B87E85",
"Y. c #A44DA5",
"T. c #8070A6",
"R. c #759283",
"E. c #74A080",
"W. c #72A8BC",
"Q. c #6B8DC8",
"!. c #888787",
"~. c #909595",
"^. c #B79893",
"/. c #91A696",
"(. c #AAAB89",
"). c #A6A6A6",
"_. c #A4B1B0",
"`. c #B7B8B8",
"'. c #C99985",
"]. c #DB9E81",
"[. c #EF888C",
"{. c #E79596",
"}. c #D5AF8D",
"|. c #EAAE8E",
" X c #F2AF96",
".X c #E8B498",
"XX c #F8BC9A",
"oX c #C9A6A3",
"OX c #CDB3B1",
"+X c #EAACAD",
"@X c #FBA6A7",
"#X c #F5BCBD",
"$X c #B5C2B4",
"%X c #E5C59D",
"&X c #F3C29D",
"*X c #D6C2B9",
"=X c #EFD1AB",
"-X c #F9D3AB",
";X c #FBE3BA",
":X c #8AB0C3",
">X c #BDC1C7",
",X c #ABC6DB",
"<X c #C7C7C8",
"1X c #CCD2D0",
"2X c #D4D4D6",
"3X c #DBDBDC",
"4X c #F7CBCC",
"5X c #FCEBC4",
"6X c #F9EED1",
"7X c #C2E0EC",
"8X c #E4E3E4",
"9X c #EDECED",
"0X c #F6F4F5",
/* pixels */
"-.-.-.-.-.-.-.-.-.-.-.-.-.-.-.-.-.-.-.-.-.-.-.-.-.-.-.-.-.-.-.-.-.-.-.-.-.-.-.-.-.-.-.-.-.-.-.-.-.-.",
"-.-.-.-.-.-.-.-.-.-.-.-.-.-.-.-.-.-.-.-.-.-.-.-.-.-.-.-.-.-.-.-.-.-.-.-.-.-.-.-.-.-.-.-.-.-.-.-.-.-.",
"-.-.-.-.-.-.-.-.-.-.-.-.-.-.-.-.-.-.-.-.-.-.-.-.-.-.&.-.-.-.-.-.-.-.-.-.-.-.-.-.-.-.-.-.-.-.-.-.-.-.",
"-.-.-.-.-.-.-.-.-.-.-.-.-.-.-.-.-.-.-.-.-.-.-.-.-.&.&.-.-.-.-.-.-.-.-.-.-.-.-.-.-.-.-.-.-.-.-.-.-.-.",
"-.-.-.-.-.-.-.-.-.-.-.-.-.-.-.-.-.-.-.-.-.-.&.-.-.&.&.-.-.-.-.-.-.-.-.-.-.&.-.-.-.-.-.-.-.-.-.-.-.-.",
"-.-.-.-.-.-.-.-.-.-.-.-.-.-.-.-.-.-.-.-.-.;.4.o.H E / %.-.-.-.-.-.-.-.-.-.&.-.-.-.-.-.-.-.-.-.-.-.-.",
"-.-.-.-.-.-.-.-.-.-.-.-.-.-.-.-.-.-.-.-.:.o.F X.@X@XX.B U #.-.-.-.-.-.&.-.&.-.-.-.-.-.-.-.-.-.-.-.-.",
"-.-.-.-.-.-.-.-.-.-.-.-.-.-.-.-.-.-.-.#.T C ..6X@X@X4XJ M P ;.-.-.-.-.&.-.&.-.-.-.-.-.-.-.-.-.-.-.-.",
"-.-.-.-.-.-.-.-.-.-.-.-.-.-.-.-.-.-.-.' C D @.@X#X#X{.+.N z ( -.-.-.-.&.-.-.-.-.-.-.-.-.-.-.-.-.-.-.",
"-.-.-.-.-.-.-.-.-.-.-.-.-.-.-.-.-.-.3.Z D C ..{.+X+X+.H M x c $.-.-.-.-.-.-.-.-.-.-.-.-.-.-.-.-.-.-.",
"-.-.-.-.-.-.-.-.-.-.-.-.-.-.-.-.-.-./ C C C B M m m m x x z l L -.-.-.-.-.-.-.-.-.-.-.-.-.-.-.-.-.-.",
"-.-.-.-.-.-.-.-.-.-.-.-.-.-.-.-.-.;.G B m j X n K K b X o j l K ;.-.9 -.-.-.-.-.-.-.-.-.-.-.-.-.-.-.",
"-.-.-.-.-.-.-.-.-.-.-.-.-.-.-.-.-.#.G z b + & : ` ` : & & * h n -.9 -.9 -.-.-.-.-.-.-.-.-.-.-.-.-.-.",
"-.-.-.-.-.-.-.-.-.-.-.-.-.-.-.-.-.-.P v 8.w.OXoX].'.^.^.[ [ X L -.-.9 -.-.-.-.-.-.-.-.-.-.-.-.-.-.-.",
"-.-.-.-.-.-.-.-.-.-.-.-.-.-.-.-.-.6.%XP &X5X7X:X5X&XW.,X.X .+ ) ,.-.-.-.-.-.-.-.-.-.-.-.-.-.-.-.-.-.",
"-.-.-.-.-.-.-.-.-.-.-.-.-.-.-.-.-.(.XX` %X5X,XT.5X=X| :XXX .& { 3.-.-.-.-.-.-.-.-.-.-.-.-.-.-.-.-.-.",
"-.-.-.-.-.-.-.-.-.-.-.-.-.-.-.-.-.(.;X8.%X=X8X5X6X;XXX*X}.9.: [ %.-.-.-.-.-.-.-.-.-.-.-.-.-.-.-.-.-.",
"-.-.-.-.-.-.-.-.-.-.-.-.-.-.-.-.-.:.=X-XoX+ 7.-X-X&X].~   {  .{ ;.-.-.-.-.-.-.-.-.-.-.-.-.-.-.-.-.-.",
"-.-.&.-.-.-.-.-.-.-.-.-.-.-.-.-.-.-.5.}.-X6.$ w.r.e.8.. > 8.7.,.-.&.-.-.-.-.-.-.-.-.-.-.-.-.-.-.-.-.",
"-.-.&.-.-.-.-.-.-.-.-.-.-.-.-.-.-.-.5.:.|. X .^ p > : ) 8.9.&.s &.&.-.-.-.-.-.-.-.-.-.-.-.-.-.-.-.-.",
"-.-.&.-.&.-.-.-.-.-.-.-.-.-.-.-.-.-.&.-.5.e.@XXX|.w. . .7.=.9 &.&.9 -.-.-.-.-.-.-.-.-.-.-.-.-.-.-.-.",
"-.-.&.-.&.-.-.-.-.-.-.-.-.-.-.-.-.-.5.%.0.n.B.e.].+.[ i < d #.9 9 -.-.-.-.-.-.-.-.-.-.-.-.-.-.-.-.-.",
"-.-.-.-.&.-.-.-.-.-.-.-.-.-.-.-.-.-.3.J Q K.C.C S A k 7 4 h n $.-.-.-.-.-.-.-.-.-.-.-.-.-.-.-.-.-.-.",
"-.-.-.-.-.-.-.-.-.-.-.-.-.-.-.-.-.%.R Z ! Q.L.Y.P.P.I.C.B.8 j v $.-.-.-.-.-.-.-.-.-.-.-.-.-.-.-.-.-.",
"-.-.-.-.-.-.-.-.-.-.-.-.-.-.-.-.,.R D V U.2.~.H.H.S.Z.).2.~ h B Y #.;.-.-.-.-.-.-.-.-.-.-.-.-.-.-.-.",
"-.-.-.-.-.-.-.-.-.-.-.-.&.-.-.:.T D V W L.(.M.G.F.S.Z.C.6.e 8 V V I #.-.-.-.-.-.-.-.-.-.&.-.-.-.-.-.",
"-.-.-.-.-.-.-.-.-.-.-.&.-.&.-.o.D V z V.G.D.G.G.F.A.Z.c.k.k.7 N C V ( *.-.-.-.-.-.-.-.&.-.&.-.-.-.-.",
"-.-.-.-.-.-.-.-.-.-.-.-.&.:.$X=X[.A h n.F.H.G.G.F.A.Z.x.k.y.7 k J [.oX/.-.-.-.-.-.-.-.-.&.-.-.-.-.-.",
"-.-.-.-.-.-.-.-.-.-.-.-.-.R.8X8X2XU.i b.S.S.S.S.S.v.x.l.s.y.w p OX2X<X).:.-.-.-.-.-.-.-.-.-.-.-.-.-.",
"-.-.-.-.-.-.-.-.-.-.-.-.-.2X0X0X2X~.*.m.c.S.c.v.x.l.k.s.y.4 w <.*X9X8X1X/.-.-.-.-.-.-.-.-.-.-.-.-.-.",
"-.-.-.-.-.-.-.-.-.-.-.-._.0X0X9X2X_.*.h.l.x.x.l.k.d.p.y.3 2 r :.8X0X9X3X`.1.-.-.-.-.-.-.-.-.-.-.-.-.",
"-.-.-.-.-.-.-.-.-.-.-.-.1X9X9X>X2X>X=.h.d.d.d.s.u.t.5 3 1 2 t 1.8X8X9X8X).~.-.-.-.-.-.-.-.-.-.-.-.-.",
"-.&.&.-.-.-.-.-.-.-.-.:.<X2X8X`.1X_.;.M.x.j.y.t.3 3 1 1 3 5 e ;.2X<X3X3X!.!.:.-.-.-.-.-.-.-.-.-.-.-.",
"-.-.&.&.-.&.&.-.-.-.-.-./.`.`./.`.R.*.m.v.x.s.5 2 2 3 u.j.s.q -./.).$X).!.<.-.-.-.-.-.-.-.-.-.-.-.-.",
"-.-.-.&.&.&.-.-.-.-.-.-.-.:.=.=.:.-.-.b.Z.x.d.5 y 0 u.l.x.j.6 *.-.,.:.:.;.&.-.-.-.-.-.-.-.-.-.-.-.&.",
"-.-.-.9 &.9 -.-.-.-.-.-.-.-.-.-.-.-.>.v.Z.v.s.3 *.*.s.x.x.l.t.*.-.-.-.&.-.&.-.-.-.-.-.-.-.-.-.-.-.-.",
"-.-.-.9 9 -.-.-.-.-.-.-.-.-.-.-.-.-.h.S.S.x.y.4 *.*.a.l.v.l.s.y -.-.-.&.-.&.-.-.-.-.-.-.-.-.-.-.-.-.",
"-.-.-.-.-.-.-.-.-.-.-.-.-.-.-.-.-.-.M.D.Z.x.y.q -.-.f.x.x.l.s.t -.-.-.&.-.-.-.-.-.-.-.-.-.-.-.-.-.-.",
"-.-.-.-.-.-.-.-.-.-.-.-.-.-.-.-.-.*.M.Z.v.j.y.e -.-.r l.x.l.s.r -.-.-.-.-.-.-.-.-.-.-.-.-.-.-.-.-.-.",
"-.-.-.-.-.-.-.-.-.-.-.-.-.-.-.-.-.*.D.F.v.d.t.t -.&.u l.v.x.l.i.*.-.-.-.-.-.-.-.-.-.-.-.-.-.-.-.-.-.",
"-.-.-.-.-.-.-.-.-.-.-.-.-.-.-.-.;.R.K.J.v.d.5 y &.;.>.x.S.F.J.N.g -.-.-.-.-.-.-.-.-.-.-.-.-.-.-.-.-.",
"-.-.-.-.-.-.-.-.-.-.-.-.-.-.-.;.4.0.] | N.g.t.y -.5.h.x.C.B.9.O.U d -.-.-.-.-.-.-.-.-.-.-.-.-.-.-.-.",
"-.-.-.-.-.-.-.-.-.-.-.-.-.-.-.%.e.r.4.P b = % a -.-.f ~ ` O.r.e.] L s -.-.-.-.-.-.-.-.-.-.-.-.-.-.-.",
"-.-.-.-.-.-.-.-.-.-.-.-.-.-.*._ } 0.] = @ O O a -.-.f ; P [ q.4.P = - -.-.-.-.-.-.-.-.-.-.-.-.-.-.-.",
"-.-.-.-.-.-.-.-.-.-.-.-.-.-.-.f L L = @ O + > -.-.-.#.( ; L P L = O a 9 -.-.-.-.-.-.-.-.-.-.-.-.-.-.",
"-.-.-.-.-.-.-.-.-.-.-.-.-.-.-.;.3.( ( , s -.-.-.-.-.-.;.#.3._ ( , a 9 -.-.-.-.-.-.-.-.-.-.-.-.-.-.-.",
"-.-.-.-.-.-.-.-.-.-.-.-.-.-.-.-.-.-.-.-.-.-.-.-.-.-.-.-.-.-.-.-.-.-.-.-.-.-.-.-.-.-.-.-.-.-.-.-.-.-.",
"-.-.-.-.-.-.-.-.-.-.-.-.-.-.-.-.-.-.-.-.-.-.-.-.-.-.-.-.-.-.-.-.-.-.-.-.-.-.-.-.-.-.-.-.-.-.-.-.-.-.",
"-.-.-.-.-.-.-.-.-.-.-.-.-.-.-.-.-.-.-.-.-.-.-.-.-.-.-.-.-.&.-.-.-.-.-.-.-.-.-.-.-.-.-.-.-.-.-.-.-.-.",
"-.-.-.-.-.-.-.-.-.-.-.-.-.-.-.-.-.-.-.-.-.-.-.-.-.-.-.-.-.&.&.-.-.-.-.-.-.-.-.-.-.-.-.-.-.-.-.-.-.-."
};
